<?xml version="1.0" encoding="UTF-8" standalone="no"?>
<svg
   version="1.1"
   id="Layer_1"
   x="0px"
   y="0px"
   width="100%"
   viewBox="0 0 688 400"
   enable-background="new 0 0 688 400"
   xml:space="preserve"
   sodipodi:docname="kerala_adobe_express.svg"
   inkscape:version="1.2.1 (9c6d41e410, 2022-07-14)"
   xmlns:inkscape="http://www.inkscape.org/namespaces/inkscape"
   xmlns:sodipodi="http://sodipodi.sourceforge.net/DTD/sodipodi-0.dtd"
   xmlns="http://www.w3.org/2000/svg"
   xmlns:svg="http://www.w3.org/2000/svg"><defs
   id="defs35" /><sodipodi:namedview
   id="namedview33"
   pagecolor="#ffffff"
   bordercolor="#000000"
   borderopacity="0.25"
   inkscape:showpageshadow="2"
   inkscape:pageopacity="0.0"
   inkscape:pagecheckerboard="0"
   inkscape:deskcolor="#d1d1d1"
   showgrid="false"
   inkscape:zoom="2.6927613"
   inkscape:cx="248.07249"
   inkscape:cy="173.61361"
   inkscape:window-width="1920"
   inkscape:window-height="1013"
   inkscape:window-x="-9"
   inkscape:window-y="29"
   inkscape:window-maximized="1"
   inkscape:current-layer="Layer_1" />
<path
   fill="#000000"
   opacity="1.000000"
   stroke="none"
   d=" M451.693115,220.572403   C447.048767,217.643585 445.859406,213.053024 444.208618,207.893051   C441.891907,210.720291 439.921844,213.261230 437.809021,215.677292   C431.460388,222.937057 424.386902,225.029343 416.414032,222.141174   C410.315765,219.932083 407.578400,215.029755 406.272491,208.644470   C402.759674,211.616211 400.795288,215.169052 397.705872,217.716934   C392.241241,222.223648 386.451996,224.939880 379.334503,222.312195   C372.097717,219.640472 369.941010,213.411728 368.738251,206.611328   C368.567230,205.644379 368.556702,204.649033 368.391785,202.738541   C365.621643,206.674438 363.458099,210.119370 360.925568,213.267441   C356.073242,219.299057 350.501648,224.285309 341.908478,222.843353   C330.978241,221.009247 325.488739,212.340942 328.416992,201.551788   C331.910950,188.678162 337.037170,176.361511 341.505829,163.820419   C342.046814,162.302139 343.144470,160.889648 342.687988,158.931870   C336.563477,158.844162 330.531189,158.125504 324.705200,154.410141   C320.159332,164.625107 315.694092,174.436996 311.416809,184.330185   C306.760559,195.099960 301.427094,205.413956 292.911346,213.734863   C284.378754,222.072235 274.337463,225.058319 262.654877,222.223602   C252.396042,219.734360 245.185440,209.739777 246.231415,198.375259   C247.529495,184.271927 251.846848,170.995331 259.285614,158.902924   C263.423523,152.176392 269.189484,147.334869 277.221436,145.562973   C290.148926,142.711090 298.131653,150.411209 294.841858,163.236328   C291.009613,178.176437 281.826172,188.622543 266.804749,193.069778   C260.335876,194.984970 259.246246,193.402252 259.279755,203.278458   C259.318939,214.825211 268.141205,220.812363 279.057556,216.813126   C284.700226,214.745941 289.086182,211.004059 293.088531,206.674408   C302.811768,196.156036 307.677826,182.917694 313.550659,170.244263   C315.090759,166.920761 316.387909,163.480911 318.010834,160.200455   C320.317780,155.537201 321.788330,151.496902 319.274811,145.797272   C315.874786,138.087433 319.826111,135.185699 329.505920,137.336472   C329.474365,145.158279 333.212219,149.208008 341.169952,149.653214   C345.985260,149.922623 350.839996,150.134903 355.362091,147.806931   C356.772949,147.080627 358.214539,145.864639 359.917450,147.385162   C361.710449,148.986099 360.861481,150.686966 360.248627,152.420242   C354.422028,168.899231 348.580353,185.372955 342.804230,201.869629   C341.871613,204.533203 341.088165,207.270569 340.513031,210.031586   C339.956757,212.702087 341.018646,215.016739 343.155914,216.632965   C345.222717,218.195892 347.531799,217.952454 349.768677,216.847672   C353.445923,215.031479 356.317627,212.238876 358.703705,208.998474   C364.244995,201.473099 369.190125,193.719955 371.621704,184.427002   C374.575989,173.136536 380.279572,163.154999 388.622314,154.873215   C393.297699,150.231995 398.631104,146.609039 405.392548,145.638824   C415.082672,144.248413 418.517761,146.139771 423.149902,156.613373   C424.916260,145.302567 431.084259,142.552063 440.474487,145.569336   C440.951111,148.524933 439.309998,150.808319 438.419006,153.231583   C431.870605,171.041183 424.931305,188.713013 420.022339,207.084808   C419.020538,210.834045 418.453094,214.651657 422.223633,216.952316   C425.928864,219.213135 429.314270,217.199234 432.162842,214.642517   C439.376007,208.168427 444.779114,200.250809 447.797211,191.174622   C456.149475,166.057205 464.839569,141.065094 473.905182,116.198723   C477.775970,105.581429 478.671051,105.018227 490.340057,107.275497   C491.270142,108.813637 490.234375,110.099777 489.753387,111.456398   C479.297028,140.949417 468.436371,170.306717 459.788177,200.407806   C458.917023,203.440033 458.186707,206.521988 457.578003,209.617645   C457.027985,212.414871 457.718048,215.078156 460.041138,216.786423   C462.404419,218.524246 465.118835,218.123154 467.598328,216.763229   C471.178955,214.799377 473.944458,211.866913 476.293854,208.619324   C481.375610,201.594788 485.856354,194.359024 488.136810,185.725906   C491.283173,173.814896 497.034882,163.121109 506.038666,154.433731   C509.678741,150.921600 513.823486,148.212708 518.641235,146.538986   C528.897217,142.976028 535.209167,145.614578 540.280579,156.885925   C541.889099,145.959839 547.556213,142.440781 557.031311,145.475296   C558.158447,147.539780 556.786194,149.294052 556.135803,151.086487   C549.439026,169.541183 542.045898,187.755692 537.073242,206.801514   C536.064636,210.664597 535.252319,214.741074 539.385864,217.067368   C543.339844,219.292618 546.831665,216.971436 549.733398,214.294434   C556.465759,208.083298 560.825745,200.202423 564.883240,192.136826   C565.631836,190.648773 566.319031,189.127151 567.128540,187.673355   C567.710815,186.627518 568.510010,185.626953 569.906433,186.212036   C571.431152,186.850845 570.971191,188.108047 570.503967,189.180450   C565.892456,199.766754 560.679871,210.014114 552.297058,218.200165   C542.795593,227.478653 526.219482,224.010757 523.100708,208.656830   C521.693665,210.219910 520.463989,211.459442 519.381653,212.816406   C517.498779,215.176987 515.385010,217.274536 512.958374,219.073807   C501.713715,227.411194 489.919861,223.325500 486.424194,209.828796   C485.927979,207.912872 485.731750,205.919250 485.286957,203.320572   C482.741608,206.886948 480.540192,210.256012 478.055176,213.400940   C469.966492,223.637589 462.604858,225.673813 451.693115,220.572403  M528.189880,150.345596   C523.883545,150.100494 520.837341,152.512054 518.467529,155.572891   C506.339630,171.237122 499.218170,188.864441 498.274902,208.786453   C498.115723,212.148224 498.112671,215.863373 501.789886,217.431824   C505.581329,219.049011 508.708923,216.751266 511.049866,214.107376   C525.100830,198.238327 532.936951,179.763062 533.671631,158.469193   C533.793091,154.950104 532.621460,151.883698 528.189880,150.345596  M403.742920,201.253189   C408.863647,192.234406 412.650543,182.688065 415.165619,172.625015   C416.424713,167.587402 417.238312,162.493500 416.581604,157.323212   C415.742859,150.719559 411.132629,148.542679 405.530670,151.990433   C404.271545,152.765366 402.984283,153.683701 402.088593,154.831451   C389.260620,171.268982 381.642303,189.670059 381.304688,210.754837   C381.259735,213.561401 382.006042,216.188202 384.761108,217.432327   C387.497589,218.668076 389.950562,217.427292 392.164154,215.764328   C397.064514,212.082977 400.359344,207.093292 403.742920,201.253189  M288.185547,151.211472   C283.340057,148.625687 279.538605,150.946838 276.858795,154.517059   C269.188660,164.735687 264.993317,176.565964 261.421906,189.203094   C262.705261,189.109283 263.332764,189.130707 263.931519,189.009735   C275.913666,186.588852 288.886414,172.890198 290.575287,160.671646   C291.002441,157.581055 291.381470,154.299026 288.185547,151.211472  z"
   id="path2" />
<path
   fill="#000000"
   opacity="1.000000"
   stroke="none"
   d=" M105.021072,105.019211   C117.767403,92.645454 132.148804,84.067894 149.651031,81.599617   C168.690308,78.914566 187.101166,81.458893 204.876724,88.727577   C207.804626,89.924835 210.714294,91.167084 213.624283,92.407562   C217.725372,94.155769 221.681427,94.401657 225.352509,91.359016   C225.607147,91.147972 225.904572,90.986687 226.189316,90.814178   C228.160767,89.619751 230.337509,88.904137 232.170135,90.665756   C234.406906,92.815872 232.466446,94.732208 231.099625,96.276016   C225.538757,102.556892 221.103821,109.571983 217.084534,116.894821   C206.489273,136.198486 198.503662,156.731293 188.933014,176.516800   C187.003494,180.505753 185.077728,184.496506 182.884949,189.035583   C187.945099,190.150864 191.742920,188.448181 195.417038,186.819366   C206.339096,181.977325 213.883881,173.241333 220.542419,163.804184   C229.758652,150.742020 238.286179,137.192444 247.554047,124.168556   C257.837311,109.717766 270.105164,97.410049 287.258209,91.090080   C293.715363,88.710960 300.404602,87.515625 307.261627,87.250847   C309.014984,87.183136 310.982117,86.830849 311.976746,88.953094   C311.715393,91.052345 310.123901,91.206909 308.640350,91.244949   C291.129913,91.693832 278.756989,101.191757 268.393677,114.139900   C260.455811,124.057671 254.324203,135.169785 247.682755,145.941986   C242.347198,154.596069 236.862122,163.143234 230.211273,170.880310   C220.972321,181.628204 210.055878,189.716751 195.917786,192.799866   C194.475372,193.114410 193.085678,193.670624 190.695297,194.421249   C196.845566,200.333191 201.108688,206.957397 204.247330,214.244202   C208.988968,225.252533 213.517426,236.352631 218.247253,247.366165   C221.208282,254.261017 224.663879,260.911835 228.930511,267.109863   C245.826202,291.653839 270.388550,294.294220 292.182556,273.850525   C299.019440,267.437286 304.843781,260.164795 309.790283,252.195740   C310.580780,250.922272 311.342285,249.625977 312.212097,248.407990   C313.036652,247.253448 314.163940,246.351242 315.590729,247.267380   C317.049622,248.204132 316.531830,249.587570 315.894470,250.813431   C312.887238,256.597412 309.357605,262.066193 305.204529,267.072449   C295.803223,278.405121 285.270508,288.474243 270.123810,291.163788   C244.446533,295.723267 218.817657,286.288605 205.985916,257.816498   C199.509476,243.446121 196.719208,227.996674 192.669418,212.913986   C191.501373,208.563812 190.278183,204.193848 187.582367,200.508835   C183.496689,194.923965 179.292572,195.057495 175.683380,200.846283   C167.878265,213.364944 159.324982,225.315918 146.966736,233.739838   C128.535263,246.303574 108.726570,250.554459 87.477722,241.470947   C79.251335,237.954300 73.991188,231.315079 71.255211,222.811142   C70.517197,220.517242 69.771973,217.963425 72.318756,216.229767   C74.150040,216.342972 74.153076,217.671143 74.532211,218.733353   C81.716202,238.860535 105.248314,247.529922 123.791290,236.843033   C134.029480,230.942413 141.203354,221.939484 147.789276,212.466797   C159.901779,195.045120 169.094238,175.947189 179.084030,157.307602   C189.708771,137.483276 200.145935,117.528282 215.434204,100.690475   C215.728821,100.365990 215.761230,99.803406 215.973434,99.184273   C196.972061,90.658134 177.752090,83.454369 156.431366,85.288841   C142.930405,86.450485 131.485825,92.574738 121.655098,101.370140   C102.878235,118.169502 91.426033,139.257599 87.588806,164.183685   C86.478302,171.397339 86.798767,178.833801 90.061539,185.731140   C93.562332,193.131653 99.273483,197.135223 107.563423,197.830261   C125.609642,199.343262 137.456268,189.398148 147.269714,176.227310   C157.859451,162.014587 164.171661,145.723282 168.654678,128.681015   C169.162323,126.751205 168.854202,123.576157 172.085434,124.460594   C174.861740,125.220512 174.000748,127.845108 173.430511,129.987000   C167.580353,151.961975 159.370193,172.780472 142.772278,189.101257   C131.434235,200.249969 117.870560,205.342285 101.776344,202.466263   C87.479805,199.911499 77.895393,189.446457 76.663597,174.818985   C74.569847,149.955688 84.707863,129.492783 99.703178,110.790657   C101.262253,108.846184 103.077148,107.106812 105.021072,105.019211  z"
   id="path4" />
<path
   fill="#000000"
   opacity="1.000000"
   stroke="none"
   d=" M268.260010,324.655762   C267.272125,321.483368 266.223877,318.783813 263.025879,316.647766   C267.028870,315.269348 270.227325,315.768524 273.762848,316.105469   C270.756226,323.165344 275.956390,328.280762 277.733978,334.292847   C278.898376,328.437622 285.309967,322.959351 277.781494,316.503967   C281.906464,315.310608 285.184906,315.749420 288.716125,316.097992   C285.052429,323.498627 291.125519,328.362640 292.246979,334.407410   C293.560028,328.472107 299.184784,323.428619 295.181976,316.146942   C300.879242,315.416779 306.448853,315.670380 311.995392,316.017944   C313.836151,316.133270 314.528625,318.042786 315.430969,319.400879   C318.168579,323.521179 320.837341,327.687195 324.068390,331.653442   C323.959595,326.531097 326.970154,321.014252 320.977478,316.505859   C324.446625,315.373322 327.315399,315.688660 331.908997,316.484192   C326.779694,318.908112 327.282471,322.300171 327.296417,325.555786   C327.321747,331.463013 327.303589,337.370483 326.484070,343.562683   C320.317413,337.995209 317.145599,330.463196 311.594421,324.529968   C311.934113,330.740143 308.385193,337.381378 314.407715,343.112122   C311.251251,345.137329 308.154968,343.571350 304.798859,343.504486   C309.037292,340.265442 307.863922,335.992126 307.903900,332.022614   C307.935760,328.858612 307.963104,325.694458 307.971130,322.530334   C307.976410,320.440704 307.800598,318.356812 305.154083,318.001862   C302.776031,317.682892 300.833344,318.528198 300.011566,320.937469   C298.025574,326.759857 296.173096,332.627899 294.171936,338.444916   C293.498901,340.401215 293.353149,342.712463 290.793427,344.370911   C286.972870,339.655792 286.812195,333.473938 283.561859,328.239868   C280.015289,333.078583 280.394623,339.365570 276.525177,344.738525   C272.007233,338.480804 271.034485,331.376892 268.260010,324.655762  z"
   id="path6" />
<path
   fill="#000000"
   opacity="1"
   stroke="none"
   d="m 445.29983,329.08252 c 0.003,5.05215 0.003,9.62018 0.003,14.18823 -0.56119,0.18244 -1.12234,0.36487 -1.68353,0.5473 -5.26947,-5.90707 -8.45764,-13.43075 -14.03379,-19.35601 0.42167,6.26635 -3.0866,12.94033 3.53034,19.4606 -6.7669,-0.89679 -12.68063,-1.60305 -18.77264,-0.16519 -1.74726,0.41239 -3.37171,-0.44306 -5.20664,0.0451 -7.66168,2.03842 -12.36298,-1.61819 -12.45654,-9.51749 -0.0375,-3.16455 -0.10367,-6.33328 0.0143,-9.49374 0.1131,-3.02972 0.12497,-5.94134 -3.2218,-7.71258 3.93713,-1.61396 5.01987,-1.6763 10.72263,-0.70667 -3.79529,6.09662 -1.92798,12.75336 -2.12363,19.20395 -0.0872,2.87442 1.07306,5.39191 4.24264,5.91916 3.26978,0.54397 6.15909,-1.45172 6.60868,-4.15332 1.13928,-6.84622 2.45349,-13.92914 -1.40506,-20.93366 3.15011,-1.15399 6.33017,-0.67492 9.70929,-0.25616 -3.56244,7.39499 -1.53684,15.02035 -1.9014,22.45627 -1.54312,5.2736 6.23775,5.89044 6.75467,1.1134 0.91772,-6.73572 1.12375,-13.53119 -0.096,-20.27353 -0.2019,-1.116 -2.11047,-1.06427 -2.18588,-2.48648 5.0029,-2.27682 7.00509,-1.80002 9.81649,2.4541 2.65287,4.01413 5.24454,8.06876 8.46705,11.95249 -0.30088,-4.93882 3.04092,-10.36603 -3.04181,-14.76923 3.34494,-1.40759 6.32602,-0.73453 10.7442,-0.53409 -5.56415,3.62927 -4.38336,8.24158 -4.48429,13.01752 z"
   id="path8"
   sodipodi:nodetypes="cccccssssccsssccccscscccc" />
<path
   fill="#000000"
   opacity="1.000000"
   stroke="none"
   d=" M490.457825,342.752075   C486.783142,340.544830 485.270599,336.695953 481.819977,334.103882   C480.424469,337.477234 480.963287,340.247955 483.444946,343.021729   C480.036285,344.852844 476.913239,343.881989 474.092621,343.641907   C476.567017,334.438446 476.453369,325.552948 474.116547,316.082825   C478.454987,315.573151 483.175568,315.351990 487.896027,316.169067   C491.415680,316.778320 494.221344,318.502228 494.935944,322.304474   C495.655365,326.132355 493.614838,328.620361 490.496368,330.451263   C489.656586,330.944305 488.853149,331.499176 487.836182,332.152039   C489.521606,336.768097 492.929779,339.842255 496.770599,342.820160   C494.229919,344.957855 492.509766,343.624481 490.457825,342.752075  M481.135681,327.702057   C481.328613,331.135986 483.529785,330.263763 485.347717,329.482513   C488.590179,328.089081 490.436829,325.600922 489.388458,321.984863   C488.609039,319.296417 486.448303,318.083679 483.599487,318.396515   C480.668488,318.718384 481.143372,321.003479 481.078888,322.929657   C481.034637,324.251404 481.088074,325.576385 481.135681,327.702057  z"
   id="path10" />
<path
   fill="#000000"
   opacity="1.000000"
   stroke="none"
   d=" M193.829529,342.158325   C190.546387,343.592285 187.578064,344.287720 184.302414,343.803955   C181.388275,343.373596 178.404739,343.413116 175.433136,343.244202   C179.272400,334.419678 178.113251,325.610657 176.273682,316.558838   C183.949051,313.767303 194.056412,316.015503 197.690063,321.699799   C201.616302,327.841797 200.133759,336.384460 193.829529,342.158325  M185.433960,318.400757   C182.806854,318.762360 183.071426,320.838837 183.042999,322.615936   C182.971069,327.111938 182.965256,331.610046 183.015961,336.106384   C183.038040,338.065704 182.738007,340.347717 185.103806,341.260681   C187.384735,342.140961 189.511398,341.141113 191.046066,339.590271   C195.074738,335.519165 194.235580,330.310730 193.541016,325.419495   C192.981644,321.480377 190.402802,318.904755 185.433960,318.400757  z"
   id="path12" />
<path
   fill="#000000"
   opacity="1.000000"
   stroke="none"
   d=" M392.299866,327.332275   C392.222839,329.922363 392.439789,332.139984 391.992554,334.214386   C390.426331,341.478455 384.751770,345.352234 377.712646,344.212524   C371.154236,343.150665 366.339813,335.910583 367.158997,328.341553   C367.985565,320.703796 372.194672,315.916107 378.573364,315.358185   C385.575043,314.745728 390.087158,318.540710 392.299866,327.332275  M372.983276,329.414612   C373.132660,331.903809 373.176300,334.405670 374.264862,336.737183   C375.699005,339.808838 377.658783,342.315063 381.455688,341.612366   C384.893799,340.976013 386.318665,338.199738 386.602631,335.056549   C386.870483,332.091766 386.899811,329.038025 386.500427,326.095856   C385.870056,321.451874 381.700928,316.947571 378.684296,317.649384   C374.137695,318.707123 373.175903,322.451233 373.032562,326.527344   C373.009186,327.192535 372.985992,327.857758 372.983276,329.414612  z"
   id="path14" />
<path
   fill="#000000"
   opacity="1.000000"
   stroke="none"
   d=" M148.718124,325.125244   C151.852753,316.743927 157.332199,313.626862 164.503128,315.783905   C170.964676,317.727600 174.836929,325.903320 173.069122,333.869965   C171.380096,341.481476 165.453278,345.564850 158.053268,344.215393   C152.027771,343.116547 147.059433,335.362701 147.974548,328.430542   C148.104050,327.449554 148.420593,326.493195 148.718124,325.125244  M167.712906,328.801422   C167.769302,325.490631 166.619415,322.545929 164.561661,320.066284   C161.867905,316.820190 158.090363,316.984253 155.716248,320.231171   C152.332550,324.858826 153.015762,335.228516 156.983887,339.471222   C160.329071,343.047913 164.398315,342.396759 166.633560,337.980072   C167.980209,335.319214 167.702820,332.480621 167.712906,328.801422  z"
   id="path16" />
<path
   fill="#000000"
   opacity="1.000000"
   stroke="none"
   d=" M243.208008,318.120819   C249.395935,314.280426 254.798843,314.402252 259.124573,318.223724   C264.016022,322.544983 265.403656,330.401001 262.457275,337.091675   C260.125092,342.387604 255.497681,344.955170 249.514648,344.272980   C241.379425,343.345367 236.330933,333.417236 239.387192,324.320129   C240.136017,322.091217 241.143982,319.997620 243.208008,318.120819  M258.432343,332.962219   C258.840820,328.361816 258.066071,323.988770 255.215973,320.292480   C252.417648,316.663330 248.638443,316.759979 246.132233,320.245453   C242.826889,324.842285 243.740509,335.904694 247.753021,339.870483   C250.667465,342.751007 254.462540,342.420654 256.517181,338.875061   C257.401764,337.348572 257.664520,335.461731 258.432343,332.962219  z"
   id="path18" />
<path
   fill="#000000"
   opacity="1.000000"
   stroke="none"
   d=" M142.535278,320.088562   C143.039185,321.527679 143.628235,322.599304 142.752914,323.810577   C140.245438,324.391968 139.997070,321.942352 138.863968,320.753235   C136.936996,318.731018 134.752747,317.103699 131.889191,317.658600   C128.746185,318.267639 127.128235,320.818024 126.634796,323.712189   C125.935692,327.812592 125.685417,332.006836 127.412506,335.994202   C128.632477,338.810791 130.091812,341.455414 133.625748,341.773651   C135.552399,341.947113 137.508820,341.632690 138.250534,339.619843   C139.394424,336.515472 139.046005,333.521790 135.888519,330.905701   C139.641373,329.390533 142.782150,330.046478 146.931122,330.095551   C143.592667,334.303925 143.973694,338.198853 144.902817,342.466309   C139.995071,343.882141 135.199280,345.075104 130.254242,343.991425   C123.307419,342.469147 119.200119,334.306274 120.893562,325.902771   C122.385574,318.498840 127.988121,314.390076 135.391891,315.438354   C138.284027,315.847809 142.208359,314.838440 142.535278,320.088562  z"
   id="path20" />
<path
   fill="#000000"
   opacity="1.000000"
   stroke="none"
   d=" M214.033447,319.236877   C212.538101,322.373657 213.751816,324.342834 216.187286,325.746948   C218.202484,326.908813 220.373260,327.806671 222.358444,329.013428   C225.904358,331.168945 228.262772,334.150696 226.933228,338.527283   C225.651489,342.746552 222.351303,344.518097 218.075165,344.294434   C215.136902,344.140808 212.215164,343.671417 209.219864,343.335785   C208.058533,341.430695 207.406876,339.494354 208.805084,337.310059   C211.352814,336.982910 211.838684,339.613037 213.497177,340.503296   C216.194656,341.951324 219.081192,342.828583 221.051987,339.897003   C223.103699,336.845062 221.203506,334.581604 218.428238,333.027069   C216.542328,331.970673 214.564957,331.073456 212.705612,329.974579   C208.838348,327.689056 207.795151,324.113617 209.026855,320.076355   C210.319702,315.838654 214.026703,314.962524 217.865005,315.185333   C225.479034,315.627350 225.858398,316.118805 224.317520,321.905060   C220.916840,321.103302 218.948181,314.853821 214.033447,319.236877  z"
   id="path22" />
<path
   fill="#000000"
   opacity="1.000000"
   stroke="none"
   d=" M504.087280,343.698303   C509.254089,334.358368 502.126251,324.474243 495.528137,316.696594   C498.892761,314.979065 502.223785,315.894836 505.755066,316.067078   C504.119904,321.038086 507.121277,324.218933 509.744415,328.539886   C511.432434,324.265808 516.035950,321.697205 512.433411,316.539886   C515.176880,315.280243 517.769836,315.646027 520.572083,316.368378   C514.494629,324.584473 507.301544,332.182190 513.246826,343.558319   C510.282990,344.586151 507.322906,343.736389 504.087280,343.698303  z"
   id="path24" />
<path
   fill="#000000"
   opacity="1.000000"
   stroke="none"
   d=" M354.270813,315.177612   C364.122620,316.365845 364.512360,316.717712 364.211975,323.814453   C361.568604,324.120056 361.223022,321.544739 359.904663,320.281921   C355.295380,315.866821 350.626221,316.871216 348.315399,322.844086   C346.520691,327.482941 347.138031,332.039185 348.956116,336.417969   C351.547211,342.658539 357.434570,343.484344 361.895935,338.416443   C362.622894,337.590729 362.934021,336.246948 364.721375,336.328766   C365.456726,339.619385 363.410065,341.464325 361.060089,342.921631   C356.191956,345.940674 349.030640,344.516693 345.277832,339.930206   C338.166656,331.239441 342.386780,315.649658 354.270813,315.177612  z"
   id="path26" />
<path
   fill="#000000"
   opacity="1.000000"
   stroke="none"
   d=" M457.376282,340.554321   C457.682770,334.421600 457.851654,328.627899 457.897522,322.833191   C457.909821,321.274536 458.435974,319.280487 456.316559,318.572205   C454.606262,318.000580 453.564636,319.279022 452.582123,320.441010   C452.046112,321.074982 451.517212,321.734497 450.248138,321.384430   C449.918396,318.115021 450.447632,315.647705 454.668396,315.697174   C460.093140,315.760742 465.519165,315.712646 470.713409,315.712646   C471.618835,318.304901 471.191711,319.954620 469.831818,321.427155   C468.143585,321.738464 468.252563,320.075592 467.514709,319.362366   C465.930908,317.831543 463.747894,318.092255 463.722412,320.009094   C463.619781,327.731384 461.436584,335.692108 465.623047,343.533508   C463.042816,344.660736 460.191986,344.080719 457.560547,343.875244   C454.616364,343.645233 456.366547,342.033447 457.376282,340.554321  z"
   id="path28" />
<path
   fill="#000000"
   opacity="1.000000"
   stroke="none"
   d=" M205.063248,324.664185   C202.737091,323.576141 201.374786,317.165558 203.111481,316.014954   C204.781372,314.908661 205.877914,315.732269 206.274277,317.600372   C206.781052,319.988861 205.879440,322.154205 205.063248,324.664185  z"
   id="path30" />
<path
   style="fill:#008000;fill-rule:evenodd;stroke-width:0.525191"
   d=""
   id="path402" /><path
   style="fill:#008000;fill-rule:evenodd;stroke-width:0.525191"
   d="m 249.73883,291.42068 c -9.32914,-1.35854 -18.15895,-4.98875 -25.39324,-10.43995 -7.21584,-5.4373 -12.57983,-12.23981 -17.18924,-21.79905 -3.94114,-8.17335 -6.02987,-14.55431 -10.7447,-32.82443 -2.27354,-8.81007 -4.62056,-17.41745 -5.21559,-19.1275 -2.40379,-6.90823 -5.88052,-10.80838 -9.63497,-10.80838 -2.88504,0 -4.13333,1.16906 -8.58429,8.03942 -9.17769,14.16637 -17.49259,23.21754 -27.23634,29.64808 -18.27566,12.06131 -36.00964,14.83499 -54.324033,8.49655 -8.818482,-3.052 -14.294677,-7.78125 -18.033986,-15.57417 -2.546905,-5.30789 -3.042843,-8.40641 -1.560254,-9.74814 1.200935,-1.08683 1.715923,-0.66418 2.680984,2.20026 2.052508,6.09212 8.451446,13.79205 14.363328,17.28358 9.717409,5.73905 22.366541,6.39892 32.330761,1.68659 11.01303,-5.20834 21.39828,-16.41417 33.67169,-36.33221 5.00499,-8.12241 9.45313,-16.19726 23.87811,-43.34669 14.50334,-27.29691 22.14361,-39.81258 30.84122,-50.5216 5.09698,-6.27571 7.03306,-8.925127 6.73668,-9.218772 -0.68318,-0.676854 -17.73473,-7.401142 -23.19234,-9.145907 -21.20493,-6.779089 -39.76057,-6.807627 -54.74483,-0.0842 -8.70756,3.907077 -20.99799,13.994539 -28.72722,23.578079 -12.060026,14.95334 -20.065956,33.4912 -22.48004,52.05287 -1.84437,14.1812 3.208468,26.38173 12.751537,30.78975 3.159243,1.45929 3.538683,1.5091 11.408393,1.49771 7.86108,-0.0114 8.28957,-0.0688 12.48544,-1.67462 11.1168,-4.25444 20.98492,-13.99377 30.46947,-30.07183 5.30774,-8.9976 11.34454,-24.24878 14.28709,-36.09442 0.73195,-2.94659 1.50738,-4.94781 1.98875,-5.13253 0.98886,-0.37946 3.26696,1.06571 3.26696,2.07248 0,1.77265 -5.04016,17.93801 -7.69885,24.69262 -4.39859,11.17494 -10.20814,21.57661 -16.42834,29.41397 -2.79524,3.52197 -10.09382,10.72964 -13.34605,13.17983 -4.17533,3.14564 -10.76178,6.30065 -15.83363,7.58456 -5.3088,1.34388 -14.22473,1.44113 -19.76477,0.21559 -11.650211,-2.57723 -20.322123,-10.94061 -23.115349,-22.29295 -1.172278,-4.76442 -0.894191,-19.59412 0.484675,-25.84657 4.451486,-20.18521 18.133022,-42.00752 34.453534,-54.954043 13.29033,-10.542776 25.43714,-15.708015 40.87694,-17.382254 18.24194,-1.978095 34.95666,0.816012 55.15442,9.219864 3.83355,1.595055 8.10267,3.03698 9.48694,3.204277 2.25002,0.271931 2.98932,0.06012 6.97375,-1.997983 4.25914,-2.199998 4.52035,-2.266718 5.88622,-1.50349 2.3222,1.297615 2.12992,3.059005 -0.69166,6.336092 -8.91339,10.352327 -16.40133,24.081447 -31.9077,58.502727 -3.90377,8.66565 -9.01119,19.74057 -11.34982,24.61094 -2.33864,4.87036 -4.25207,9.0964 -4.25207,9.3912 0,0.33845 1.4033,0.44297 3.80764,0.28359 7.32076,-0.48528 16.31761,-5.421 23.8764,-13.09872 5.84821,-5.94023 8.13093,-8.99648 21.62524,-28.95317 12.83989,-18.98889 15.74317,-23.15522 19.65744,-28.20941 8.97713,-11.59143 18.1211,-19.41627 29.06331,-24.870557 8.82997,-4.401414 18.72418,-6.847596 26.4402,-6.536904 3.60913,0.145324 3.95278,0.255991 4.10433,1.32172 0.19214,1.351255 0.008,1.409524 -7.20534,2.285968 -18.5304,2.251354 -31.99422,13.741363 -49.15548,41.949223 -15.59934,25.64054 -21.05605,33.39115 -29.41068,41.77437 -9.29024,9.32201 -16.97437,13.89826 -28.77442,17.13647 -3.38292,0.92835 -6.15078,1.8878 -6.15078,2.13211 0,0.24432 1.31146,1.87074 2.91435,3.61428 2.97788,3.2392 6.53627,8.40647 8.61327,12.50766 0.63911,1.26197 4.71206,10.71541 9.05101,21.00764 11.68082,27.70758 15.99226,35.50899 24.22994,43.84331 8.81486,8.91827 18.17362,12.90838 28.71815,12.24397 16.06034,-1.01196 30.55863,-12.22182 46.30011,-35.79857 2.87034,-4.29903 4.77887,-5.56563 5.51111,-3.65744 0.92763,2.41735 -6.99327,14.35898 -16.43452,24.77689 -7.15308,7.89303 -16.58619,14.34938 -24.34769,16.66442 -7.09059,2.11491 -18.02222,2.89109 -25.46117,1.8078 z"
   id="path404" /><path
   style="fill:#008000;fill-rule:evenodd;stroke-width:0.525191"
   d="m 266.24581,222.66871 c -9.0411,-1.39251 -16.04076,-7.08344 -18.71805,-15.21833 -1.88285,-5.72098 -0.70423,-16.87305 3.0461,-28.82227 2.23177,-7.11078 8.24639,-19.05957 11.70395,-23.25133 5.13709,-6.22793 12.41043,-9.89892 19.61276,-9.89892 4.72831,0 7.37279,0.91241 9.86353,3.40315 3.71334,3.71334 4.38137,9.17659 2.03694,16.65829 -4.44411,14.18234 -14.66749,24.14485 -28.23925,27.51867 -1.98469,0.49337 -4.22988,1.43151 -4.98932,2.08475 -1.334,1.14746 -1.38052,1.38057 -1.37294,6.87898 0.007,4.80482 0.19507,6.10029 1.20984,8.31723 3.7997,8.30115 12.02563,10.20559 22.1533,5.12886 4.86668,-2.43953 12.57089,-9.87726 16.73677,-16.15787 5.44003,-8.20156 20.86265,-41.62593 21.43437,-46.45324 0.24171,-2.04089 -0.014,-3.57582 -1.17973,-7.08284 -2.22873,-6.70475 -1.06971,-8.67521 5.1122,-8.69129 3.88776,-0.0101 4.63838,0.32255 4.63838,2.05566 0,2.58311 1.61196,6.26279 3.45083,7.87735 2.48703,2.18363 5.30468,2.84003 12.30489,2.86652 5.47021,0.0207 6.38243,-0.11837 9.67453,-1.47486 3.71634,-1.5313 4.60002,-1.48378 5.73035,0.30818 0.36993,0.58646 -2.01388,7.94159 -8.81109,27.18607 -5.12502,14.51016 -9.76874,27.95747 -10.31936,29.88292 -1.73453,6.06532 -1.04757,9.7285 2.13281,11.37313 4.93336,2.55114 11.48009,-1.79649 18.48935,-12.27863 5.57193,-8.33264 7.39406,-12.22552 10.9647,-23.42545 3.19924,-10.03498 8.4438,-18.68282 15.77869,-26.0177 5.79738,-5.79738 10.95661,-8.58406 17.68087,-9.55003 7.64546,-1.09831 11.27138,0.8163 15.03003,7.93636 1.78736,3.38582 1.82841,3.42165 2.16128,1.88641 1.92103,-8.85999 6.07759,-11.90715 14.33847,-10.51149 1.96171,0.33143 2.20891,0.53294 2.20891,1.80055 0,0.78504 -0.80266,3.42305 -1.78369,5.86223 -3.26242,8.11154 -12.25608,33.21266 -14.66711,40.93565 -3.60664,11.55273 -4.55683,15.32148 -4.55683,18.07381 0,2.15843 0.25235,2.76602 1.78565,4.29932 1.54526,1.54526 2.13238,1.78565 4.3613,1.78565 3.19853,0 6.01818,-1.69054 10.1618,-6.09258 7.87446,-8.36556 9.60367,-11.8141 17.48611,-34.87231 11.75311,-34.38095 22.22494,-63.82059 23.75098,-66.77164 1.28366,-2.48233 3.23112,-3.60637 6.20438,-3.58106 2.81567,0.024 6.98373,0.68564 7.48656,1.18846 0.16191,0.16191 -0.57975,2.73254 -1.64813,5.71252 -18.55691,51.75998 -29.01557,83.70776 -31.23587,95.41537 -1.34508,7.09255 4.1514,11.18455 10.60261,7.8934 6.5326,-3.33269 16.12174,-17.68018 19.90146,-29.77704 3.72902,-11.9346 6.70157,-18.16479 12.05907,-25.27473 7.68126,-10.19381 17.4951,-16.31673 26.15252,-16.31673 5.14284,0 9.66538,3.27715 12.58209,9.1173 0.66938,1.34029 1.29562,2.4369 1.39165,2.4369 0.096,0 0.67687,-1.65362 1.29076,-3.67472 1.21736,-4.00791 3.30391,-6.83992 5.80176,-7.87456 1.89838,-0.78634 8.64628,-0.50883 9.54776,0.39265 0.76913,0.76913 0.99351,0.0589 -5.84761,18.5093 -9.97914,26.91363 -14.71729,42.09234 -14.71729,47.14696 0,2.5423 0.19346,3.04468 1.78565,4.63686 1.5176,1.5176 2.15144,1.78565 4.22245,1.78565 3.36986,0 5.80875,-1.4006 9.79257,-5.62366 4.32783,-4.58773 7.59921,-9.52013 12.26298,-18.48942 2.91844,-5.61271 3.96261,-7.1716 4.89207,-7.3036 1.15446,-0.16396 1.43424,0.30549 1.19556,2.00599 -0.22137,1.57719 -7.28202,15.1527 -9.89464,19.02444 -6.36059,9.42598 -10.76543,13.31898 -16.8273,14.87196 -5.11256,1.30978 -10.60378,-0.13187 -14.91268,-3.91514 -1.96,-1.7209 -5.12124,-7.31192 -5.12124,-9.05751 0,-0.53158 -0.17725,-0.96493 -0.3939,-0.96301 -0.21664,0.002 -2.58288,2.35036 -5.25831,5.21877 -5.38337,5.77169 -9.80275,8.52904 -14.76363,9.21133 -8.13,1.11816 -15.21504,-5.47554 -16.94475,-15.76967 -0.36189,-2.1537 -0.79692,-3.91583 -0.96674,-3.91583 -0.16981,0 -1.8913,2.22638 -3.82552,4.9475 -9.69354,13.63719 -16.26603,16.96685 -26.41731,13.38314 -4.61238,-1.6283 -7.32638,-4.5639 -9.22599,-9.97927 -0.74996,-2.13798 -1.47245,-3.88724 -1.60553,-3.88724 -0.13308,0 -2.02315,2.14008 -4.20016,4.75574 -6.74765,8.10722 -10.6634,10.47748 -17.2348,10.43248 -7.42759,-0.0509 -12.90832,-4.00842 -15.23539,-11.00126 -0.62214,-1.86955 -1.32724,-3.39918 -1.56688,-3.39918 -0.23965,0 -1.9013,1.71344 -3.69258,3.80764 -6.20312,7.25215 -11.59013,10.54348 -17.31889,10.58141 -8.82485,0.0584 -14.66387,-6.25504 -16.05071,-17.35491 -0.19318,-1.54618 -0.50126,-2.80022 -0.68462,-2.78675 -0.18336,0.0134 -1.98773,2.432 -4.00971,5.37454 -4.3548,6.3374 -9.22368,11.33796 -12.7116,13.05535 -3.72856,1.83588 -10.29767,1.77265 -14.38115,-0.13842 -5.98455,-2.80078 -9.04646,-7.48283 -9.05864,-13.85183 -0.0101,-5.26606 1.69061,-10.68157 12.7203,-40.50548 2.85976,-7.73268 2.84573,-8.07217 -0.3338,-8.0838 -3.55664,-0.013 -9.08409,-1.28287 -12.75522,-2.93038 -1.73449,-0.77839 -3.23636,-1.3217 -3.33747,-1.20734 -0.10112,0.11435 -3.78049,8.3615 -8.17638,18.327 -4.3959,9.96549 -9.29133,20.50919 -10.87874,23.43044 -5.34073,9.82833 -13.38595,19.1164 -19.73104,22.77914 -5.4845,3.16597 -13.15402,4.62261 -19.3303,3.67134 z m 126.43766,-7.00206 c 12.8326,-9.44682 27.5175,-46.82733 23.74043,-60.43137 -0.31448,-1.13266 -1.26874,-2.75634 -2.12059,-3.60819 -1.40369,-1.40368 -1.80503,-1.52719 -4.28331,-1.31806 -3.94782,0.33313 -6.63113,2.26616 -10.60405,7.63905 -11.36802,15.37389 -18.1274,34.4058 -18.1274,51.04006 0,7.08575 1.19877,8.9196 5.85062,8.95009 2.06345,0.0135 2.91307,-0.33458 5.5443,-2.27158 z m 115.49221,1.29021 c 3.98092,-2.42751 12.15243,-13.62479 16.71105,-22.89884 5.19425,-10.56719 7.69204,-19.41623 8.68974,-30.78549 0.62833,-7.16017 0.21028,-9.17753 -2.37153,-11.4444 -1.97571,-1.7347 -4.59964,-2.13533 -7.28886,-1.11289 -6.00821,2.28432 -17.57778,21.07151 -22.0018,35.72751 -2.02401,6.7052 -3.282,13.57779 -3.8092,20.81017 -0.40112,5.50287 0.18584,8.02055 2.24804,9.64268 1.76057,1.38487 5.60261,1.41496 7.82256,0.0613 z M 265.78254,188.74754 c 6.31596,-1.87395 12.77726,-6.46633 17.65364,-12.54737 8.67918,-10.82328 10.19946,-23.53293 3.09502,-25.87449 -5.23889,-1.72668 -9.61007,1.91583 -15.61102,13.00867 -3.079,5.69157 -6.20325,13.84234 -9.61255,25.07786 -0.44554,1.46833 0.43407,1.53424 4.47491,0.33533 z"
   id="path406" /></svg>
